<mxfile host="app.diagrams.net" modified="2023-07-28T14:05:57.676Z" agent="Mozilla/5.0 (Windows NT 10.0; Win64; x64) AppleWebKit/537.36 (KHTML, like Gecko) Chrome/114.0.0.0 Safari/537.36" version="21.6.5" etag="pnuq3-WirGR3BtMZ-wUV" type="github">
  <diagram name="PÃ¡gina-1" id="gqsXupj9BTkbVXi0mqaj">
    <mxGraphModel>
      <root>
        <mxCell id="0" />
        <mxCell id="1" parent="0" />
      </root>
    </mxGraphModel>
  </diagram>
</mxfile>
